<svg id="Capa_1" enable-background="new 0 0 512 512" viewBox="0 0 512 512" xmlns="http://www.w3.org/2000/svg" xmlns:xlink="http://www.w3.org/1999/xlink"><linearGradient id="SVGID_1_" gradientUnits="userSpaceOnUse" x1="256" x2="256" y1="512" y2="0"><stop offset="0" stop-color="#a93aff"></stop><stop offset="1" stop-color="#ff81ff"></stop></linearGradient><linearGradient id="SVGID_00000129922408316771908550000007954722686833885067_" gradientUnits="userSpaceOnUse" x1="256" x2="256" y1="391" y2="121"><stop offset="0" stop-color="#ffbef9"></stop><stop offset="1" stop-color="#fff1ff"></stop></linearGradient><g><g><g><path d="m437 0h-362c-41.367 0-75 33.647-75 75v362c0 41.353 33.633 75 75 75h362c41.367 0 75-33.647 75-75v-362c0-41.353-33.633-75-75-75z" fill="url(#SVGID_1_)"></path></g></g><g><g><path d="m376 241h-105v-105c0-8.291-6.709-15-15-15s-15 6.709-15 15v105h-105c-8.291 0-15 6.709-15 15s6.709 15 15 15h105v105c0 8.291 6.709 15 15 15s15-6.709 15-15v-105h105c8.291 0 15-6.709 15-15s-6.709-15-15-15z" fill="url(#SVGID_00000129922408316771908550000007954722686833885067_)"></path></g></g></g></svg>
